<?xml version="1.0" encoding="iso-8859-1"?>
<!-- Generator: Adobe Illustrator 19.0.0, SVG Export Plug-In . SVG Version: 6.00 Build 0)  -->
<svg version="1.1" id="Capa_1" xmlns="http://www.w3.org/2000/svg" xmlns:xlink="http://www.w3.org/1999/xlink" x="0px" y="0px"
	 viewBox="0 0 400 400" style="enable-background:new 0 0 400 400;" xml:space="preserve">
<path style="fill:#FFDC69;" d="M312,0H112C94.328,0,80,14.328,80,32v8H32C14.328,40,0,54.328,0,72v40c0,17.672,14.328,32,32,32h48
	v56v104v32c0,17.68,14.32,32,32,32h24h24c0,17.672,14.328,32,32,32h96c17.672,0,32-14.328,32-32h24h24c17.672,0,32-14.328,32-32V88
	v-8L320,0H312z M272,72c0-17.672-14.328-32-32-32C257.68,40,272,54.32,272,72z M272,112c0,17.68-14.32,32-32,32
	C257.672,144,272,129.672,272,112z"/>
<path style="fill:#FF8C5A;" d="M272,72v40c0,17.672-14.328,32-32,32H32c-17.672,0-32-14.328-32-32V72c0-17.672,14.328-32,32-32h208
	C257.672,40,272,54.328,272,72z"/>
<path style="fill:#FEEC9F;" d="M288,400h-96c-17.672,0-32-14.328-32-32v-80c0-17.672,14.328-32,32-32h96c17.672,0,32,14.328,32,32
	v80C320,385.672,305.672,400,288,400z"/>
<path style="fill:#FFB855;" d="M320,0h-8v56c0,17.672,14.328,32,32,32h56v-8L320,0z"/>
<g>
	<polygon style="fill:#FFFFFF;" points="216,320 200,320 200,288 232,288 232,304 216,304 	"/>
	<polygon style="fill:#FFFFFF;" points="232,368 200,368 200,336 216,336 216,352 232,352 	"/>
	<polygon style="fill:#FFFFFF;" points="280,320 264,320 264,304 248,304 248,288 280,288 	"/>
	<polygon style="fill:#FFFFFF;" points="280,368 248,368 248,352 264,352 264,336 280,336 	"/>
	<rect x="24" y="104" style="fill:#FFFFFF;" width="16" height="16"/>
	<polygon style="fill:#FFFFFF;" points="94.016,64.168 49.384,64.168 49.384,77.832 63.696,77.832 63.696,119.96 79.696,119.96 
		79.696,77.832 94.016,77.832 	"/>
	<rect x="100.304" y="64.16" style="fill:#FFFFFF;" width="16" height="55.792"/>
	<polygon style="fill:#FFFFFF;" points="142.592,100.152 160.576,100.152 160.576,86.48 142.592,86.48 142.592,77.832 
		163.568,77.832 163.568,64.168 126.592,64.168 126.592,119.96 142.592,119.96 	"/>
	<polygon style="fill:#FFFFFF;" points="208.168,64.168 171.184,64.168 171.184,119.96 187.184,119.96 187.184,100.152 
		205.168,100.152 205.168,86.48 187.184,86.48 187.184,77.832 208.168,77.832 	"/>
</g>
<g>
</g>
<g>
</g>
<g>
</g>
<g>
</g>
<g>
</g>
<g>
</g>
<g>
</g>
<g>
</g>
<g>
</g>
<g>
</g>
<g>
</g>
<g>
</g>
<g>
</g>
<g>
</g>
<g>
</g>
</svg>
